<svg width="19" height="19" viewBox="0 0 19 19" fill="none" xmlns="http://www.w3.org/2000/svg" preserveAspectRatio="none">
<path d="M1.13431 5.0502C1.13431 5.0502 2.82911 2.4111 5.51001 0.995597C8.19091 -0.419903 11.495 -0.0133031 13.661 1.3604C15.8289 2.7341 16.5566 3.8912 16.5566 3.8912L18.4243 2.8177C18.4243 2.8177 18.8119 2.6258 18.8119 3.0742V9.8097C18.8119 9.8097 18.8119 10.412 18.3616 10.1973C17.9816 10.0168 13.8833 7.6646 12.5932 6.9236C11.8826 6.6044 12.5077 6.346 12.5077 6.346L14.3089 5.3086C14.3089 5.3086 13.2829 4.0109 11.7781 3.3231C10.1688 2.4776 8.66211 2.3769 6.81531 3.0799C5.61261 3.5378 4.19521 4.712 3.17491 6.4467L1.13431 5.0502ZM17.8657 13.9498C17.8657 13.9498 16.1709 16.5889 13.49 18.0044C10.8091 19.4199 7.50501 19.0133 5.33901 17.6396C3.17111 16.2659 2.44341 15.1088 2.44341 15.1088L0.57571 16.1823C0.57571 16.1823 0.18811 16.3742 0.18811 15.9258V9.1903C0.18811 9.1903 0.18811 8.588 0.63841 8.8027C1.01841 8.9832 5.11671 11.3354 6.40681 12.0764C7.11741 12.3956 6.49231 12.6559 6.49231 12.6559L4.69111 13.6933C4.69111 13.6933 5.71711 14.991 7.22191 15.6788C8.83121 16.5243 10.3379 16.625 12.1847 15.922C13.3874 15.4641 14.8048 14.2899 15.827 12.5552L17.8657 13.9498Z" fill="var(--color6)"/>
</svg>
