<svg width="19" height="19" viewBox="0 0 19 19" fill="none" xmlns="http://www.w3.org/2000/svg" preserveAspectRatio="none">
<path d="M12.4269 0.190785C12.3979 0.198006 12.2193 0.223656 12.0371 0.249116L11.6983 0.292815V0.937675V1.58254L11.4541 1.66272C11.323 1.70642 11.0899 1.80123 10.9404 1.87039C10.791 1.93594 10.6489 1.99427 10.6271 1.99427C10.6052 1.99427 10.3939 1.79762 10.1534 1.55708L9.72344 1.11989L9.50114 1.27645C8.98377 1.63706 8.44094 2.18731 8.09476 2.70107L7.97449 2.87606L8.4189 3.32408L8.86711 3.7759L8.72138 4.09643C8.63759 4.27123 8.54278 4.51177 8.50649 4.62463L8.44094 4.83591H7.79608H7.15122L7.1001 5.0983C7.03816 5.4517 7.03816 6.69772 7.1001 7.04751L7.15122 7.31351H7.79608H8.44094L8.50288 7.52118C8.53936 7.63784 8.63397 7.87819 8.71776 8.05318L8.87071 8.3739L8.41928 8.82553L7.97126 9.27735L8.0368 9.37938C8.39021 9.92582 9.04609 10.5853 9.59614 10.9495L9.73465 11.0405L10.1865 10.5925L10.6381 10.1407L10.9586 10.29C11.1334 10.3738 11.374 10.4686 11.4906 10.5049L11.6983 10.5705V11.2153V11.8602L11.9278 11.9039C12.4416 12.0023 13.4324 11.9913 14.059 11.8821L14.1757 11.8602V11.2153V10.5705L14.387 10.5049C14.5 10.4685 14.7404 10.3738 14.9152 10.29L15.2357 10.1443L15.6875 10.5923L16.1356 11.0404L16.3761 10.8692C16.9189 10.4829 17.3744 10.0239 17.746 9.49566L17.8989 9.27716L17.4511 8.82553L17.0067 8.37371L17.1378 8.08225C17.2106 7.92189 17.3054 7.68515 17.3491 7.55405L17.4293 7.31351L18.0705 7.30629L18.7118 7.29527L18.7591 7.05853C18.7919 6.90558 18.8102 6.5594 18.8102 6.0749C18.8102 5.5904 18.7919 5.24422 18.7591 5.09127L18.7118 4.85453L18.0669 4.84351L17.422 4.83629L17.331 4.55205C17.2763 4.3991 17.1817 4.16217 17.1161 4.02746L16.9959 3.78331L17.4439 3.3351C17.9577 2.82495 17.9394 2.92698 17.5788 2.44608C17.3128 2.09269 16.8866 1.67374 16.4785 1.36404L16.1397 1.10526L15.6771 1.56069L15.2144 2.01612L14.9777 1.89585C14.8466 1.8303 14.6133 1.73549 14.4603 1.68096L14.1761 1.58994L14.1689 0.945086L14.1578 0.300225L13.9211 0.252915C13.6948 0.209025 12.5436 0.161716 12.4269 0.190785ZM13.3923 4.59917C13.9316 4.74851 14.3978 5.29514 14.4598 5.85602C14.5399 6.54458 14.2194 7.16037 13.6365 7.45544C13.0207 7.76875 12.3285 7.6595 11.8404 7.1712C11.232 6.55921 11.2246 5.61187 11.8258 4.99608C12.2339 4.58093 12.7986 4.4352 13.3923 4.59917Z" fill="var(--color6)"/>
<path d="M4.24783 8.04214C4.02553 8.10047 3.68315 8.21333 3.4827 8.29712C3.11106 8.45007 2.37158 8.83634 2.37158 8.87643C2.37158 8.88745 2.49185 9.09493 2.63758 9.33186L2.90358 9.76544L2.48463 10.1808L2.06207 10.5997L1.5808 10.3592L1.09991 10.1188L0.972418 10.3484C0.633648 10.9531 0.247378 11.9113 0.214698 12.2282L0.203868 12.3521L0.677538 12.5526L1.15121 12.7494V13.3431V13.9371L0.677538 14.1301C0.415148 14.2358 0.196648 14.3268 0.193038 14.3306C0.163968 14.3488 0.371638 15.1029 0.477278 15.3798C0.586528 15.664 0.976408 16.4508 1.07103 16.5821C1.11473 16.644 1.14399 16.633 1.57377 16.3708L2.02559 16.094L2.14947 16.2505C2.21863 16.3343 2.40445 16.5274 2.5612 16.6769L2.84905 16.9537L2.6049 17.4202L2.36075 17.8902L2.44815 17.9558C2.75785 18.1999 4.12414 18.75 4.45569 18.7646L4.60142 18.7718L4.79446 18.32L4.98389 17.8682L5.58144 17.8718L6.17899 17.8754L6.37203 18.3381C6.47767 18.593 6.56887 18.8081 6.57609 18.8153C6.60155 18.8408 7.18447 18.6915 7.47232 18.5894C7.80387 18.4692 8.4816 18.1522 8.71834 18.0029L8.88953 17.8936L8.61992 17.4492L8.3467 17.0048L8.77306 16.5895L9.19562 16.1705L9.66568 16.4073C10.1101 16.6296 10.143 16.6404 10.1867 16.5785C10.2923 16.44 10.5691 15.8753 10.7295 15.4928C10.8788 15.1248 11.0683 14.5018 11.0356 14.4727C11.032 14.4655 10.8207 14.3634 10.5693 14.2468L10.1175 14.0319L10.1139 13.4271V12.826L10.5912 12.6329L11.0684 12.4399L11.0356 12.2723C10.9809 12.0027 10.8608 11.6166 10.7405 11.3105L10.6313 11.0263L10.2228 11.4304L9.81464 11.8385L9.42837 11.5799C8.52853 10.9788 8.0294 10.476 7.43907 9.59444L7.17307 9.19734L7.55934 8.81107C7.77062 8.59979 7.94561 8.41397 7.94561 8.40295C7.94561 8.33379 7.02031 8.01668 6.76514 7.99483C6.6595 7.98761 6.65228 7.99844 6.46266 8.44285L6.2662 8.89828H5.66504H5.06749L4.88167 8.43202C4.77964 8.17704 4.68502 7.96196 4.67039 7.95474C4.65937 7.94733 4.46633 7.98742 4.24783 8.04214ZM6.0002 12.3667C6.25157 12.4505 6.56488 12.7674 6.65228 13.0298C6.82347 13.5508 6.59756 14.1047 6.10945 14.345C5.39904 14.6948 4.56095 14.2029 4.55012 13.4269C4.54651 13.1573 4.60123 12.9643 4.74696 12.7492C5.00555 12.3703 5.53375 12.2064 6.0002 12.3667Z" fill="var(--color6)"/>
</svg>
