<svg width="64" height="42" viewBox="0 0 64 42" fill="none" xmlns="http://www.w3.org/2000/svg" preserveAspectRatio="none">
<path opacity="0.2" d="M35.4489 34.5435C51.2168 30.7568 62.455 22.5215 60.5501 16.1495C58.6451 9.77754 44.3184 7.6818 28.5504 11.4686C12.7825 15.2553 1.54428 23.4906 3.44925 29.8625C5.35421 36.2345 19.6809 38.3303 35.4489 34.5435Z" fill="var(--color6)"/>
<path d="M30.0832 0C16.6627 0 19.7842 11.8309 12.9129 15.5239C5.94179 19.4788 9.78252 23.0194 10.9111 26.841C12.815 33.2133 18.1485 28.7111 33.9177 24.9238C49.6861 21.1374 53.0768 21.7096 51.1726 15.3377C50.0308 11.5587 53.7783 8.05637 45.6297 7.72287C39.0065 8.08563 39.6693 0 30.0832 0Z" fill="var(--color6)"/>
<path opacity="0.1" d="M30.0831 0C16.6626 0 19.7856 11.832 12.9143 15.525C9.19683 17.634 8.58292 19.6236 8.96379 21.6024C9.29619 20.2474 10.3928 18.869 12.9143 17.4384C19.7856 13.7455 16.6626 1.91722 30.0831 1.91722C39.6692 1.91722 39.0074 10.0013 45.6306 9.63851C49.6255 9.80201 50.7572 10.7302 51.0115 12.0762C51.2069 9.74281 51.3124 7.95383 45.6306 7.72129C39.0074 8.08405 39.6692 0 30.0831 0ZM50.989 14.2443C50.9116 15.1883 50.8558 16.2067 51.1725 17.255C51.3439 17.8285 51.4553 18.3284 51.5357 18.7977C51.7579 17.9235 51.6168 16.8244 51.1725 15.3377C51.0608 14.9678 51.0228 14.6062 50.989 14.2443Z" fill="var(--color2)"/>
<path d="M35.4496 32.6277C51.2176 28.841 62.4558 20.6057 60.5508 14.2337C58.6458 7.86174 44.3191 5.766 28.5511 9.55275C12.7832 13.3395 1.54501 21.5748 3.44998 27.9467C5.35495 34.3187 19.6817 36.4145 35.4496 32.6277Z" fill="var(--color5)"/>
<path opacity="0.2" d="M35.2174 37.5372C42.5944 35.7748 47.9925 31.703 47.2745 28.4426C46.5565 25.1821 39.9943 23.9678 32.6173 25.7302C25.2404 27.4926 19.8422 31.5644 20.5602 34.8248C21.2782 38.0852 27.8405 39.2996 35.2174 37.5372Z" fill="var(--color6)"/>
<path d="M35.2172 35.6197C42.5941 33.8573 47.9922 29.7854 47.2742 26.525C46.5562 23.2646 39.994 22.0502 32.6171 23.8126C25.2401 25.575 19.842 29.6468 20.56 32.9072C21.278 36.1677 27.8402 37.3821 35.2172 35.6197Z" fill="var(--color2)"/>
<path opacity="0.1" d="M42.6611 7.67629C38.1862 7.75822 33.3345 8.4033 28.5516 9.55231C21.2282 11.315 14.5284 14.1468 9.83791 17.4623C5.14737 20.7777 2.82484 24.3231 3.35065 27.3652C3.9126 24.4487 6.72495 21.2761 11.3146 18.3811C15.9043 15.4862 21.9912 13.0454 28.5516 11.4695C32.3011 10.569 36.1032 9.97572 39.7407 9.72358C43.3782 9.47144 46.7799 9.56537 49.7515 10C52.7232 10.4347 55.2065 11.2015 57.0598 12.2568C58.913 13.312 60.0999 14.635 60.5526 16.1502C60.5965 16.3412 60.6289 16.5347 60.65 16.7306C60.8195 15.8608 60.7869 15.0239 60.5526 14.233C59.934 12.1612 57.9462 10.459 54.798 9.30526C51.6498 8.15154 47.4574 7.58885 42.6611 7.67629Z" fill="var(--color2)"/>
</svg>
