<svg width="41.5702mm" height="50.0062mm" viewBox="0 0 4159.38 5003.46" fill="none" xmlns="http://www.w3.org/1999/xlink" xmlnsxodm="http://www.corel.com/coreldraw/odm/2003" style="shape-rendering:geometricPrecision; text-rendering:geometricPrecision; image-rendering:optimizeQuality; fill-rule:evenodd; clip-rule:evenodd">
 <defs>
  <linearGradient id="id0" gradientUnits="userSpaceOnUse" x1="2733.44" y1="645.96" x2="1162.51" y2="6470.08">
   <stop offset="0" style="stop-opacity:1; stop-color:#EF7829"/>
   <stop offset="0.0509804" style="stop-opacity:1; stop-color:#F07529"/>
   <stop offset="0.360784" style="stop-opacity:1; stop-color:#F0672B"/>
   <stop offset="0.670588" style="stop-opacity:1; stop-color:#F15E2C"/>
   <stop offset="1" style="stop-opacity:1; stop-color:#F15A2C"/>
  </linearGradient>
 </defs>
  <path style="fill:url(#id0);fill-rule:nonzero" d="M132.72 2988.84l863.03 -2988.84 1326.32 0 -267.38 926.57c-2.65,5.29 -5.29,10.59 -7.94,15.89l-704.19 2446.13 656.53 0c-275.33,685.66 -489.76,1223.07 -643.31,1612.23 -1212.48,-13.24 -1551.34,-881.56 -1254.84,-1908.73m1260.15 1911.39l1598.99 -2300.54 -677.71 0 590.36 -1474.57c1011.28,105.89 1487.8,902.74 1207.19,1866.37 -299.15,1035.11 -1511.63,1908.73 -2692.34,1908.73 -10.6,0 -18.53,0 -26.48,0z"/>
</svg>
