<svg width="43" height="41" viewBox="0 0 43 41" fill="none" xmlns="http://www.w3.org/2000/svg" preserveAspectRatio="none">
<path d="M21.6246 -3.8147e-06C27.4018 -3.8147e-06 32.3475 2.05714 36.4575 6.16714C40.5675 10.2771 42.6246 15.2229 42.6246 21C42.6246 25.5814 41.2918 29.6957 38.6261 33.3343C35.9561 36.9729 32.5146 39.5014 28.2932 40.9157C27.7918 40.9971 27.4232 40.9371 27.1875 40.7271C26.9518 40.5171 26.8318 40.2471 26.8318 39.9129C26.8318 39.8571 26.8403 39.1629 26.8532 37.83C26.8661 36.4971 26.8746 35.2757 26.8746 34.1614C26.8746 32.4129 26.3903 31.1057 25.4175 30.2443C26.4718 30.1329 27.4189 29.9743 28.2503 29.7643C29.0818 29.5543 29.9389 29.2029 30.8132 28.7014C31.6875 28.2 32.4161 27.5914 32.9989 26.8671C33.5818 26.1429 34.0618 25.1914 34.4346 24.0129C34.8118 22.8343 34.9961 21.4629 34.9961 19.9071C34.9961 17.7129 34.2889 15.8229 32.8703 14.2414C33.5389 12.63 33.4661 10.7829 32.6604 8.7C32.1332 8.53285 31.3832 8.63142 30.4103 8.99142C29.4375 9.35142 28.6061 9.75428 27.9118 10.2L26.8746 10.8771C25.1518 10.4057 23.4032 10.17 21.6246 10.17C19.8461 10.17 18.0975 10.4057 16.3746 10.8771C16.0703 10.6843 15.6803 10.4314 15.2089 10.1271C14.7375 9.82285 13.9789 9.46714 12.9375 9.06428C11.8961 8.66142 11.1118 8.54142 10.5846 8.70857C9.77892 10.7914 9.71035 12.6386 10.3746 14.25C8.93035 15.8614 8.20606 17.7514 8.20606 19.9157C8.20606 21.4714 8.39463 22.8386 8.76749 24.0214C9.14463 25.2 9.62035 26.1514 10.2032 26.8757C10.7861 27.6 11.5232 28.2086 12.4103 28.71C13.2975 29.2114 14.1546 29.5714 14.9732 29.7943C15.7918 30.0171 16.7303 30.1843 17.7846 30.2957C17.0903 30.8786 16.6446 31.8086 16.4518 33.0857C15.8689 33.3343 15.2861 33.5143 14.7032 33.6257C14.1203 33.7371 13.3918 33.6343 12.5175 33.3129C11.6432 32.9914 10.9146 32.3357 10.3318 31.3329C9.99749 30.75 9.56035 30.2786 9.02035 29.9143C8.48035 29.55 8.02606 29.3314 7.66606 29.2457L7.12606 29.1643C6.73606 29.1643 6.47463 29.2071 6.33321 29.2886C6.19606 29.37 6.15321 29.4814 6.20892 29.6229C6.26463 29.7643 6.34606 29.8929 6.45749 30.0171C6.56892 30.1414 6.68035 30.2443 6.79178 30.33L7.00178 30.4543C7.41749 30.6471 7.82035 31.0029 8.21035 31.5171C8.60035 32.0314 8.87892 32.4943 9.04178 32.9143L9.33321 33.54C9.55606 34.29 9.95035 34.9029 10.5203 35.3743C11.0903 35.8457 11.6989 36.15 12.3546 36.2914C13.0061 36.4286 13.6403 36.5057 14.2489 36.5186C14.8618 36.5314 15.3761 36.4971 15.7918 36.4157L16.3746 36.3343C16.4003 37.5 16.4175 38.6957 16.4175 39.9171C16.4175 40.2514 16.2975 40.5214 16.0618 40.7314C15.8261 40.9414 15.4703 41.0014 14.9989 40.92C10.7475 39.5314 7.28892 37.0114 4.62321 33.3557C1.95749 29.7043 0.624634 25.5857 0.624634 21C0.624634 15.2229 2.68178 10.2771 6.79178 6.16714C10.9018 2.05714 15.8475 -3.8147e-06 21.6246 -3.8147e-06Z" fill="var(--color6)"/>
</svg>
