<svg width="67" height="38" viewBox="0 0 67 38" fill="none" xmlns="http://www.w3.org/2000/svg" preserveAspectRatio="none">
<path d="M32.5945 37.8407H36.5709C36.5709 37.8407 37.774 37.7115 38.3925 37.0522C38.9567 36.4472 38.9431 35.3053 38.9431 35.3053C38.9431 35.3053 38.8683 29.9627 41.3493 29.1743C43.7895 28.3994 46.9298 34.3401 50.2604 36.6172C52.7822 38.3505 54.6922 37.963 54.6922 37.963L63.5829 37.8407C63.5829 37.8407 68.2389 37.5552 66.0299 33.8983C65.8463 33.5992 64.7384 31.193 59.4162 26.2447C53.8357 21.0652 54.5834 21.9081 61.3058 12.9562C65.3977 7.49806 67.029 4.17424 66.5192 2.74003C66.0231 1.3806 63.0119 1.73405 63.0119 1.73405L52.9929 1.80202C52.9929 1.80202 52.2452 1.70007 51.6946 2.02633C51.1576 2.3458 50.811 3.10029 50.811 3.10029C50.811 3.10029 49.2204 7.32133 47.1065 10.9102C42.6476 18.4891 40.8667 18.8833 40.1394 18.4143C38.4401 17.32 38.8615 14.0098 38.8615 11.6647C38.8615 4.33058 39.9763 1.26505 36.6932 0.476574C35.6057 0.211484 34.8036 0.0415549 32.0168 0.00756901C28.4483 -0.0264169 25.4167 0.0211633 23.7106 0.857216C22.5687 1.41459 21.6919 2.65847 22.222 2.73324C22.8882 2.8148 24.3835 3.13427 25.1856 4.22182C26.212 5.61524 26.1712 8.74874 26.1712 8.74874C26.1712 8.74874 26.7829 17.388 24.8118 18.4619C23.4659 19.196 21.6103 17.6938 17.6339 10.8219C15.5948 7.30094 14.0586 3.41296 14.0586 3.41296C14.0586 3.41296 13.7596 2.69245 13.2226 2.29822C12.5836 1.82242 11.6864 1.67967 11.6864 1.67967L2.17716 1.73405C2.17716 1.73405 0.742955 1.77484 0.219572 2.40018C-0.249433 2.95075 0.178789 4.09267 0.178789 4.09267C0.178789 4.09267 7.6285 21.5274 16.0706 30.3094C23.8058 38.3709 32.5945 37.8407 32.5945 37.8407Z" fill="var(--color6)"/>
</svg>
